<?xml version="1.0" encoding="UTF-8"?>
<xmeml version="4">
	<project>
		<name>DawnOfAugustProject</name>
		<children>
			<clip id="masterclip-1">
				<masterclipid>masterclip-1</masterclipid>
				<ismasterclip>TRUE</ismasterclip>
				<duration>570</duration>
				<rate>
					<timebase>60</timebase>
					<ntsc>FALSE</ntsc>
				</rate>
				<in>0</in>
				<out>570</out>
				<name>DawnOfAugustShot1</name>
				<media>
					<video>
						<track>
							<clipitem id="clipitem-1">
								<masterclipid>masterclip-1</masterclipid>
								<ismasterclip>TRUE</ismasterclip>
								<name>DawnOfAugustShot1</name>
								<enabled>TRUE</enabled>
								<duration>570</duration>
								<rate>
									<timebase>60</timebase>
									<ntsc>FALSE</ntsc>
								</rate>
								<in>0</in>
								<out>570</out>
								<anamorphic>FALSE</anamorphic>
								<pixelaspectratio>square</pixelaspectratio>
								<fielddominance>lower</fielddominance>
								<file id="file-1">
									<name>DawnOfAugustShot1.avi</name>
									<pathurl>file://localhost/D%3a/MyFiles/School/Repositories/Unreal_Pearl-of-the-Orient/PoTO/Saved/VideoCaptures/DawnOfAugustShot1.avi</pathurl>
									<rate>
										<timebase>60</timebase>
										<ntsc>FALSE</ntsc>
									</rate>
									<duration>570</duration>
									<timecode>
										<rate>
											<timebase>60</timebase>
											<ntsc>FALSE</ntsc>
										</rate>
										<string>00:00:00:00</string>
										<frame>0</frame>
									</timecode>
									<media>
										<video>
											<samplecharacteristics>
												<rate>
													<timebase>60</timebase>
													<ntsc>FALSE</ntsc>
												</rate>
												<width>1920</width>
												<height>1080</height>
												<anamorphic>FALSE</anamorphic>
												<pixelaspectratio>square</pixelaspectratio>
												<fielddominance>lower</fielddominance>
											</samplecharacteristics>
										</video>
									</media>
								</file>
							</clipitem>
						</track>
					</video>
				</media>
				<logginginfo>
					<description />
					<scene />
					<shottake />
					<good />
					<originalvideofilename />
					<originalaudiofilename />
					<lognote>[UE4ShotSection=/Game/Cinematics/Sequences/DawnOfAugust/DawnOfAugust.DawnOfAugust:MovieScene_0.MovieSceneCinematicShotTrack_0.MovieSceneCinematicShotSection_2][UE4ShotStartOffset=0][UE4ShotHandleFrames=0]</lognote>
				</logginginfo>
				<colorinfo>
					<lut />
					<lut1 />
					<asc_sop />
					<asc_sat />
					<lut2 />
				</colorinfo>
			</clip>
			<clip id="masterclip-2">
				<masterclipid>masterclip-2</masterclipid>
				<ismasterclip>TRUE</ismasterclip>
				<duration>400</duration>
				<rate>
					<timebase>60</timebase>
					<ntsc>FALSE</ntsc>
				</rate>
				<in>0</in>
				<out>400</out>
				<name>DawnOfAugust4_2</name>
				<media>
					<video>
						<track>
							<clipitem id="clipitem-2">
								<masterclipid>masterclip-2</masterclipid>
								<ismasterclip>TRUE</ismasterclip>
								<name>DawnOfAugust4_2</name>
								<enabled>TRUE</enabled>
								<duration>400</duration>
								<rate>
									<timebase>60</timebase>
									<ntsc>FALSE</ntsc>
								</rate>
								<in>0</in>
								<out>400</out>
								<anamorphic>FALSE</anamorphic>
								<pixelaspectratio>square</pixelaspectratio>
								<fielddominance>lower</fielddominance>
								<file id="file-2">
									<name>DawnOfAugust4_2.avi</name>
									<pathurl>file://localhost/D%3a/MyFiles/School/Repositories/Unreal_Pearl-of-the-Orient/PoTO/Saved/VideoCaptures/DawnOfAugust4_2.avi</pathurl>
									<rate>
										<timebase>60</timebase>
										<ntsc>FALSE</ntsc>
									</rate>
									<duration>400</duration>
									<timecode>
										<rate>
											<timebase>60</timebase>
											<ntsc>FALSE</ntsc>
										</rate>
										<string>00:00:00:00</string>
										<frame>0</frame>
									</timecode>
									<media>
										<video>
											<samplecharacteristics>
												<rate>
													<timebase>60</timebase>
													<ntsc>FALSE</ntsc>
												</rate>
												<width>1920</width>
												<height>1080</height>
												<anamorphic>FALSE</anamorphic>
												<pixelaspectratio>square</pixelaspectratio>
												<fielddominance>lower</fielddominance>
											</samplecharacteristics>
										</video>
									</media>
								</file>
							</clipitem>
						</track>
					</video>
				</media>
				<logginginfo>
					<description />
					<scene />
					<shottake />
					<good />
					<originalvideofilename />
					<originalaudiofilename />
					<lognote>[UE4ShotSection=/Game/Cinematics/Sequences/DawnOfAugust/DawnOfAugust.DawnOfAugust:MovieScene_0.MovieSceneCinematicShotTrack_0.MovieSceneCinematicShotSection_6][UE4ShotStartOffset=0][UE4ShotHandleFrames=0]</lognote>
				</logginginfo>
				<colorinfo>
					<lut />
					<lut1 />
					<asc_sop />
					<asc_sat />
					<lut2 />
				</colorinfo>
			</clip>
			<clip id="masterclip-3">
				<masterclipid>masterclip-3</masterclipid>
				<ismasterclip>TRUE</ismasterclip>
				<duration>604</duration>
				<rate>
					<timebase>60</timebase>
					<ntsc>FALSE</ntsc>
				</rate>
				<in>0</in>
				<out>604</out>
				<name>DawnOfAugustShot2</name>
				<media>
					<video>
						<track>
							<clipitem id="clipitem-3">
								<masterclipid>masterclip-3</masterclipid>
								<ismasterclip>TRUE</ismasterclip>
								<name>DawnOfAugustShot2</name>
								<enabled>TRUE</enabled>
								<duration>604</duration>
								<rate>
									<timebase>60</timebase>
									<ntsc>FALSE</ntsc>
								</rate>
								<in>0</in>
								<out>604</out>
								<anamorphic>FALSE</anamorphic>
								<pixelaspectratio>square</pixelaspectratio>
								<fielddominance>lower</fielddominance>
								<file id="file-3">
									<name>DawnOfAugustShot2.avi</name>
									<pathurl>file://localhost/D%3a/MyFiles/School/Repositories/Unreal_Pearl-of-the-Orient/PoTO/Saved/VideoCaptures/DawnOfAugustShot2.avi</pathurl>
									<rate>
										<timebase>60</timebase>
										<ntsc>FALSE</ntsc>
									</rate>
									<duration>604</duration>
									<timecode>
										<rate>
											<timebase>60</timebase>
											<ntsc>FALSE</ntsc>
										</rate>
										<string>00:00:00:00</string>
										<frame>0</frame>
									</timecode>
									<media>
										<video>
											<samplecharacteristics>
												<rate>
													<timebase>60</timebase>
													<ntsc>FALSE</ntsc>
												</rate>
												<width>1920</width>
												<height>1080</height>
												<anamorphic>FALSE</anamorphic>
												<pixelaspectratio>square</pixelaspectratio>
												<fielddominance>lower</fielddominance>
											</samplecharacteristics>
										</video>
									</media>
								</file>
							</clipitem>
						</track>
					</video>
				</media>
				<logginginfo>
					<description />
					<scene />
					<shottake />
					<good />
					<originalvideofilename />
					<originalaudiofilename />
					<lognote>[UE4ShotSection=/Game/Cinematics/Sequences/DawnOfAugust/DawnOfAugust.DawnOfAugust:MovieScene_0.MovieSceneCinematicShotTrack_0.MovieSceneCinematicShotSection_3][UE4ShotStartOffset=0][UE4ShotHandleFrames=0]</lognote>
				</logginginfo>
				<colorinfo>
					<lut />
					<lut1 />
					<asc_sop />
					<asc_sat />
					<lut2 />
				</colorinfo>
			</clip>
			<clip id="masterclip-4">
				<masterclipid>masterclip-4</masterclipid>
				<ismasterclip>TRUE</ismasterclip>
				<duration>662</duration>
				<rate>
					<timebase>60</timebase>
					<ntsc>FALSE</ntsc>
				</rate>
				<in>0</in>
				<out>662</out>
				<name>DawnOfAugust3</name>
				<media>
					<video>
						<track>
							<clipitem id="clipitem-4">
								<masterclipid>masterclip-4</masterclipid>
								<ismasterclip>TRUE</ismasterclip>
								<name>DawnOfAugust3</name>
								<enabled>TRUE</enabled>
								<duration>662</duration>
								<rate>
									<timebase>60</timebase>
									<ntsc>FALSE</ntsc>
								</rate>
								<in>0</in>
								<out>662</out>
								<anamorphic>FALSE</anamorphic>
								<pixelaspectratio>square</pixelaspectratio>
								<fielddominance>lower</fielddominance>
								<file id="file-4">
									<name>DawnOfAugust3.avi</name>
									<pathurl>file://localhost/D%3a/MyFiles/School/Repositories/Unreal_Pearl-of-the-Orient/PoTO/Saved/VideoCaptures/DawnOfAugust3.avi</pathurl>
									<rate>
										<timebase>60</timebase>
										<ntsc>FALSE</ntsc>
									</rate>
									<duration>662</duration>
									<timecode>
										<rate>
											<timebase>60</timebase>
											<ntsc>FALSE</ntsc>
										</rate>
										<string>00:00:00:00</string>
										<frame>0</frame>
									</timecode>
									<media>
										<video>
											<samplecharacteristics>
												<rate>
													<timebase>60</timebase>
													<ntsc>FALSE</ntsc>
												</rate>
												<width>1920</width>
												<height>1080</height>
												<anamorphic>FALSE</anamorphic>
												<pixelaspectratio>square</pixelaspectratio>
												<fielddominance>lower</fielddominance>
											</samplecharacteristics>
										</video>
									</media>
								</file>
							</clipitem>
						</track>
					</video>
				</media>
				<logginginfo>
					<description />
					<scene />
					<shottake />
					<good />
					<originalvideofilename />
					<originalaudiofilename />
					<lognote>[UE4ShotSection=/Game/Cinematics/Sequences/DawnOfAugust/DawnOfAugust.DawnOfAugust:MovieScene_0.MovieSceneCinematicShotTrack_0.MovieSceneCinematicShotSection_4][UE4ShotStartOffset=0][UE4ShotHandleFrames=0]</lognote>
				</logginginfo>
				<colorinfo>
					<lut />
					<lut1 />
					<asc_sop />
					<asc_sat />
					<lut2 />
				</colorinfo>
			</clip>
			<clip id="masterclip-5">
				<masterclipid>masterclip-5</masterclipid>
				<ismasterclip>TRUE</ismasterclip>
				<duration>400</duration>
				<rate>
					<timebase>60</timebase>
					<ntsc>FALSE</ntsc>
				</rate>
				<in>0</in>
				<out>400</out>
				<name>DawnOfAugust4</name>
				<media>
					<video>
						<track>
							<clipitem id="clipitem-5">
								<masterclipid>masterclip-5</masterclipid>
								<ismasterclip>TRUE</ismasterclip>
								<name>DawnOfAugust4</name>
								<enabled>TRUE</enabled>
								<duration>400</duration>
								<rate>
									<timebase>60</timebase>
									<ntsc>FALSE</ntsc>
								</rate>
								<in>0</in>
								<out>400</out>
								<anamorphic>FALSE</anamorphic>
								<pixelaspectratio>square</pixelaspectratio>
								<fielddominance>lower</fielddominance>
								<file id="file-5">
									<name>DawnOfAugust4.avi</name>
									<pathurl>file://localhost/D%3a/MyFiles/School/Repositories/Unreal_Pearl-of-the-Orient/PoTO/Saved/VideoCaptures/DawnOfAugust4.avi</pathurl>
									<rate>
										<timebase>60</timebase>
										<ntsc>FALSE</ntsc>
									</rate>
									<duration>400</duration>
									<timecode>
										<rate>
											<timebase>60</timebase>
											<ntsc>FALSE</ntsc>
										</rate>
										<string>00:00:00:00</string>
										<frame>0</frame>
									</timecode>
									<media>
										<video>
											<samplecharacteristics>
												<rate>
													<timebase>60</timebase>
													<ntsc>FALSE</ntsc>
												</rate>
												<width>1920</width>
												<height>1080</height>
												<anamorphic>FALSE</anamorphic>
												<pixelaspectratio>square</pixelaspectratio>
												<fielddominance>lower</fielddominance>
											</samplecharacteristics>
										</video>
									</media>
								</file>
							</clipitem>
						</track>
					</video>
				</media>
				<logginginfo>
					<description />
					<scene />
					<shottake />
					<good />
					<originalvideofilename />
					<originalaudiofilename />
					<lognote>[UE4ShotSection=/Game/Cinematics/Sequences/DawnOfAugust/DawnOfAugust.DawnOfAugust:MovieScene_0.MovieSceneCinematicShotTrack_0.MovieSceneCinematicShotSection_5][UE4ShotStartOffset=0][UE4ShotHandleFrames=0]</lognote>
				</logginginfo>
				<colorinfo>
					<lut />
					<lut1 />
					<asc_sop />
					<asc_sat />
					<lut2 />
				</colorinfo>
			</clip>
			<clip id="masterclip-6" explodedTracks="true">
				<masterclipid>masterclip-6</masterclipid>
				<ismasterclip>TRUE</ismasterclip>
				<duration>2636</duration>
				<rate>
					<timebase>60</timebase>
					<ntsc>FALSE</ntsc>
				</rate>
				<in>0</in>
				<out>2636</out>
				<name>Dawn</name>
				<media>
					<audio>
						<track>
							<clipitem id="clipitem-6">
								<masterclipid>masterclip-6</masterclipid>
								<name>Dawn</name>
								<rate>
									<timebase>60</timebase>
									<ntsc>FALSE</ntsc>
								</rate>
								<file id="file-6">
									<name>1Dawn.wav</name>
									<pathurl>file://localhost/C%3a/Users/Asus/Music/1Dawn.wav</pathurl>
									<rate>
										<timebase>60</timebase>
										<ntsc>FALSE</ntsc>
									</rate>
									<timecode>
										<rate>
											<timebase>60</timebase>
											<ntsc>FALSE</ntsc>
										</rate>
										<string>00:00:00:00</string>
										<frame>0</frame>
									</timecode>
									<duration>2636</duration>
									<media>
										<audio>
											<samplecharacteristics>
												<depth>16</depth>
												<samplerate>48000</samplerate>
											</samplecharacteristics>
											<channelcount>1</channelcount>
											<layout>stereo</layout>
											<audiochannel>
												<sourcechannel>1</sourcechannel>
												<channellabel>left</channellabel>
											</audiochannel>
										</audio>
										<audio>
											<samplecharacteristics>
												<depth>16</depth>
												<samplerate>48000</samplerate>
											</samplecharacteristics>
											<channelcount>1</channelcount>
											<layout>stereo</layout>
											<audiochannel>
												<sourcechannel>2</sourcechannel>
												<channellabel>right</channellabel>
											</audiochannel>
										</audio>
									</media>
								</file>
								<sourcetrack>
									<mediatype>audio</mediatype>
									<trackindex>1</trackindex>
								</sourcetrack>
								<link>
									<linkclipref>clipitem-6</linkclipref>
									<mediatype>audio</mediatype>
									<trackindex>1</trackindex>
									<clipindex>1</clipindex>
									<groupindex>1</groupindex>
								</link>
								<link>
									<linkclipref>clipitem-7</linkclipref>
									<mediatype>audio</mediatype>
									<trackindex>2</trackindex>
									<clipindex>1</clipindex>
									<groupindex>1</groupindex>
								</link>
							</clipitem>
						</track>
						<track>
							<clipitem id="clipitem-7">
								<masterclipid>masterclip-6</masterclipid>
								<name>Dawn</name>
								<rate>
									<timebase>60</timebase>
									<ntsc>FALSE</ntsc>
								</rate>
								<file id="file-6" />
								<sourcetrack>
									<mediatype>audio</mediatype>
									<trackindex>2</trackindex>
								</sourcetrack>
								<link>
									<linkclipref>clipitem-6</linkclipref>
									<mediatype>audio</mediatype>
									<trackindex>1</trackindex>
									<clipindex>1</clipindex>
									<groupindex>1</groupindex>
								</link>
								<link>
									<linkclipref>clipitem-7</linkclipref>
									<mediatype>audio</mediatype>
									<trackindex>2</trackindex>
									<clipindex>1</clipindex>
									<groupindex>1</groupindex>
								</link>
							</clipitem>
						</track>
					</audio>
				</media>
				<logginginfo>
					<description />
					<scene />
					<shottake />
					<good />
					<originalvideofilename />
					<originalaudiofilename />
					<lognote>[UE4SoundWave=/Game/Animations/Audio/Dawn.Dawn][UE4AudioSectionTopLevel=/Game/Cinematics/Sequences/DawnOfAugust/DawnOfAugust][UE4AudioSection=DawnOfAugust:MovieScene_0.MovieSceneAudioTrack_0.MovieSceneAudioSection_0]</lognote>
				</logginginfo>
			</clip>
			<sequence id="sequence-1">
				<duration>2666</duration>
				<rate>
					<timebase>60</timebase>
					<ntsc>FALSE</ntsc>
				</rate>
				<name>DawnOfAugust</name>
				<media>
					<video>
						<format>
							<samplecharacteristics>
								<rate>
									<timebase>60</timebase>
									<ntsc>FALSE</ntsc>
								</rate>
								<width>1920</width>
								<height>1080</height>
								<anamorphic>FALSE</anamorphic>
								<pixelaspectratio>square</pixelaspectratio>
								<fielddominance>lower</fielddominance>
							</samplecharacteristics>
						</format>
						<track>
							<clipitem id="clipitem-8">
								<masterclipid>masterclip-1</masterclipid>
								<ismasterclip>FALSE</ismasterclip>
								<name>DawnOfAugustShot1</name>
								<enabled>TRUE</enabled>
								<duration>570</duration>
								<rate>
									<timebase>60</timebase>
									<ntsc>FALSE</ntsc>
								</rate>
								<start>0</start>
								<end>570</end>
								<in>0</in>
								<out>570</out>
								<file id="file-1" />
							</clipitem>
							<clipitem id="clipitem-9">
								<masterclipid>masterclip-2</masterclipid>
								<ismasterclip>FALSE</ismasterclip>
								<name>DawnOfAugust4_2</name>
								<enabled>TRUE</enabled>
								<duration>400</duration>
								<rate>
									<timebase>60</timebase>
									<ntsc>FALSE</ntsc>
								</rate>
								<start>2236</start>
								<end>2636</end>
								<in>0</in>
								<out>400</out>
								<file id="file-2" />
							</clipitem>
							<clipitem id="clipitem-10">
								<masterclipid>masterclip-3</masterclipid>
								<ismasterclip>FALSE</ismasterclip>
								<name>DawnOfAugustShot2</name>
								<enabled>TRUE</enabled>
								<duration>604</duration>
								<rate>
									<timebase>60</timebase>
									<ntsc>FALSE</ntsc>
								</rate>
								<start>570</start>
								<end>1174</end>
								<in>0</in>
								<out>604</out>
								<file id="file-3" />
							</clipitem>
							<clipitem id="clipitem-11">
								<masterclipid>masterclip-4</masterclipid>
								<ismasterclip>FALSE</ismasterclip>
								<name>DawnOfAugust3</name>
								<enabled>TRUE</enabled>
								<duration>662</duration>
								<rate>
									<timebase>60</timebase>
									<ntsc>FALSE</ntsc>
								</rate>
								<start>1174</start>
								<end>1836</end>
								<in>0</in>
								<out>662</out>
								<file id="file-4" />
							</clipitem>
							<clipitem id="clipitem-12">
								<masterclipid>masterclip-5</masterclipid>
								<ismasterclip>FALSE</ismasterclip>
								<name>DawnOfAugust4</name>
								<enabled>TRUE</enabled>
								<duration>400</duration>
								<rate>
									<timebase>60</timebase>
									<ntsc>FALSE</ntsc>
								</rate>
								<start>1836</start>
								<end>2236</end>
								<in>0</in>
								<out>400</out>
								<file id="file-5" />
							</clipitem>
							<enabled>TRUE</enabled>
							<locked>FALSE</locked>
						</track>
					</video>
					<audio>
						<numOutputChannels>2</numOutputChannels>
						<format>
							<samplecharacteristics>
								<depth>16</depth>
								<samplerate>44100</samplerate>
							</samplecharacteristics>
						</format>
						<outputs>
							<group>
								<index>1</index>
								<numchannels>1</numchannels>
								<downmix>0</downmix>
								<channel>
									<index>1</index>
								</channel>
							</group>
							<group>
								<index>2</index>
								<numchannels>1</numchannels>
								<downmix>0</downmix>
								<channel>
									<index>2</index>
								</channel>
							</group>
						</outputs>
						<track currentExplodedTrackIndex="0" totalExplodedTrackCount="2" premiereTrackType="Stereo">
							<clipitem id="clipitem-13" premiereChannelType="stereo">
								<masterclipid>masterclip-6</masterclipid>
								<name>Dawn</name>
								<enabled>TRUE</enabled>
								<duration>2636</duration>
								<rate>
									<timebase>60</timebase>
									<ntsc>FALSE</ntsc>
								</rate>
								<start>0</start>
								<end>2636</end>
								<in>0</in>
								<out>2636</out>
								<file id="file-6" />
								<sourcetrack>
									<mediatype>audio</mediatype>
									<trackindex>1</trackindex>
								</sourcetrack>
								<link>
									<linkclipref>clipitem-13</linkclipref>
									<mediatype>audio</mediatype>
									<trackindex>1</trackindex>
									<clipindex>1</clipindex>
									<groupindex>1</groupindex>
								</link>
								<link>
									<linkclipref>clipitem-14</linkclipref>
									<mediatype>audio</mediatype>
									<trackindex>2</trackindex>
									<clipindex>1</clipindex>
									<groupindex>1</groupindex>
								</link>
							</clipitem>
							<enabled>TRUE</enabled>
							<locked>FALSE</locked>
						</track>
						<track currentExplodedTrackIndex="1" totalExplodedTrackCount="2" premiereTrackType="Stereo">
							<clipitem id="clipitem-14" premiereChannelType="stereo">
								<masterclipid>masterclip-6</masterclipid>
								<name>Dawn</name>
								<enabled>TRUE</enabled>
								<duration>2636</duration>
								<rate>
									<timebase>60</timebase>
									<ntsc>FALSE</ntsc>
								</rate>
								<start>0</start>
								<end>2636</end>
								<in>0</in>
								<out>2636</out>
								<file id="file-6" />
								<sourcetrack>
									<mediatype>audio</mediatype>
									<trackindex>2</trackindex>
								</sourcetrack>
								<link>
									<linkclipref>clipitem-13</linkclipref>
									<mediatype>audio</mediatype>
									<trackindex>1</trackindex>
									<clipindex>1</clipindex>
									<groupindex>1</groupindex>
								</link>
								<link>
									<linkclipref>clipitem-14</linkclipref>
									<mediatype>audio</mediatype>
									<trackindex>2</trackindex>
									<clipindex>1</clipindex>
									<groupindex>1</groupindex>
								</link>
							</clipitem>
							<enabled>TRUE</enabled>
							<locked>FALSE</locked>
						</track>
					</audio>
				</media>
				<timecode>
					<rate>
						<timebase>60</timebase>
						<ntsc>FALSE</ntsc>
					</rate>
					<string>00:00:00:00</string>
					<frame>0</frame>
				</timecode>
			</sequence>
		</children>
	</project>
</xmeml>
